<?xml version="1.0" standalone="no"?>
<!DOCTYPE svg PUBLIC "-//W3C//DTD SVG 20010904//EN"
 "http://www.w3.org/TR/2001/REC-SVG-20010904/DTD/svg10.dtd">
<svg version="1.0" xmlns="http://www.w3.org/2000/svg"
 width="437.000000pt" height="72.000000pt" viewBox="0 0 437.000000 72.000000"
 preserveAspectRatio="xMidYMid meet">

<g transform="translate(0.000000,72.000000) scale(0.100000,-0.100000)"
fill="#000000" stroke="none">
<path d="M380 670 c-22 -48 -25 -50 -64 -50 l-41 0 -52 -99 c-29 -54 -53 -101
-53 -105 0 -3 16 -6 36 -6 l35 0 -27 -49 c-24 -46 -30 -50 -67 -53 -39 -3 -41
-4 -88 -93 -27 -50 -49 -96 -49 -102 0 -8 13 -13 30 -13 35 0 36 -5 10 -45
-34 -52 -30 -55 78 -55 l99 0 27 50 27 50 75 0 c41 0 74 -3 74 -7 0 -5 -9 -21
-20 -38 -34 -52 -30 -55 78 -55 l99 0 27 49 c24 46 30 50 67 53 40 3 40 3 94
106 l55 102 -35 0 c-19 0 -35 2 -35 5 0 2 10 25 22 49 20 41 25 45 62 48 40 3
41 4 93 98 29 52 53 98 53 103 0 4 -16 7 -35 7 l-35 0 25 50 25 50 -103 0
-104 0 -23 -50 -23 -50 -79 0 -78 0 25 50 25 50 -103 0 -104 0 -23 -50z m194
-310 l-27 -50 -74 0 c-40 0 -73 2 -73 5 0 2 10 25 22 50 l22 45 79 0 78 0 -27
-50z"/>
<path d="M1016 503 c-32 -120 -76 -282 -96 -361 l-38 -142 102 0 103 0 28 105
28 105 64 -87 c35 -49 69 -96 76 -106 11 -16 26 -17 139 -15 l127 3 -75 102
c-40 57 -74 105 -74 107 0 3 21 14 48 26 94 42 160 139 183 268 18 103 -19
179 -100 202 -20 5 -131 10 -247 10 l-210 0 -58 -217z m398 -6 c8 -13 7 -24
-4 -45 -15 -26 -19 -27 -113 -30 l-98 -3 7 28 c19 76 15 74 110 71 70 -2 89
-6 98 -21z"/>
<path d="M1875 711 c-98 -24 -174 -98 -205 -199 -36 -117 -19 -188 55 -226 33
-18 62 -22 178 -24 112 -3 139 -7 144 -19 3 -8 0 -19 -8 -24 -8 -5 -96 -9
-195 -9 l-182 0 -20 -77 c-12 -43 -24 -91 -28 -107 l-7 -28 214 3 214 4 68 33
c47 23 77 47 97 74 64 87 88 214 54 279 -26 51 -81 69 -210 69 -128 0 -174 7
-174 26 0 27 41 34 214 34 158 0 175 2 180 18 15 49 46 168 46 174 0 10 -395
9 -435 -1z"/>
<path d="M2333 673 c3 -27 18 -189 33 -360 l27 -313 128 0 128 0 222 356 c123
196 225 352 226 347 2 -5 -37 -161 -87 -346 -49 -185 -90 -341 -90 -346 0 -7
36 -11 100 -11 l99 0 14 48 c8 26 20 73 27 105 l13 57 112 0 c153 0 201 15
275 88 67 66 99 138 106 242 7 84 -13 126 -76 158 -43 21 -52 22 -371 22
l-327 -1 -153 -245 c-179 -287 -157 -291 -185 34 l-18 212 -104 0 -105 0 6
-47z m1101 -159 c21 -8 21 -58 0 -78 -12 -12 -37 -16 -109 -16 l-94 0 14 48
c8 26 15 48 15 50 0 5 159 2 174 -4z"/>
<path d="M3663 708 c2 -7 37 -92 76 -189 l72 -176 -41 -154 c-23 -85 -43 -162
-46 -172 -5 -16 3 -17 98 -15 l103 3 45 167 46 167 176 188 176 188 -113 3
-113 3 -90 -92 -89 -92 -35 89 -36 89 -117 3 c-92 2 -116 0 -112 -10z"/>
</g>
</svg>
